<?xml version="1.0" encoding="UTF-8" standalone="no"?>
<!-- Created with Inkscape (http://www.inkscape.org/) -->

<svg
   version="1.1"
   id="svg9"
   width="512"
   height="512"
   viewBox="0 0 512 512"
   sodipodi:docname="building.svg"
   inkscape:version="1.1.2 (b8e25be833, 2022-02-05)"
   xmlns:inkscape="http://www.inkscape.org/namespaces/inkscape"
   xmlns:sodipodi="http://sodipodi.sourceforge.net/DTD/sodipodi-0.dtd"
   xmlns="http://www.w3.org/2000/svg"
   xmlns:svg="http://www.w3.org/2000/svg">
  <defs
     id="defs13" />
  <sodipodi:namedview
     id="namedview11"
     pagecolor="#505050"
     bordercolor="#eeeeee"
     borderopacity="1"
     inkscape:pageshadow="0"
     inkscape:pageopacity="0"
     inkscape:pagecheckerboard="0"
     showgrid="false"
     inkscape:zoom="1.0758519"
     inkscape:cx="79.936652"
     inkscape:cy="243.99269"
     inkscape:window-width="1920"
     inkscape:window-height="1001"
     inkscape:window-x="-9"
     inkscape:window-y="-9"
     inkscape:window-maximized="1"
     inkscape:current-layer="g15" />
  <g
     inkscape:groupmode="layer"
     inkscape:label="Image"
     id="g15">
    <g
       id="g1324"
       transform="translate(2.788492,0.92949538)">
      <path
         style="fill:#00cdda"
         d="m 443.18189,496.54088 -7.95308,-8 h 25.72654 25.72654 v -4 -4 h -29.77346 -29.77346 l -7.95308,-8 -7.95308,-8 h 25.72654 25.72654 V 432.31434 400.0878 l 8,7.95308 8,7.95308 v 24.27346 24.27346 h 9.54545 c 8.80135,0 9.7368,0.19134 12,2.45455 2.3892,2.38919 2.45455,2.85634 2.45455,17.54545 0,14.68911 -0.0654,15.15626 -2.45455,17.54545 l -2.45454,2.45455 h -23.31892 -23.31891 z m -50.04545,-58.45455 -2.45455,-2.45454 v -35.09091 -35.09091 l 2.45455,-2.45454 c 2.36903,-2.36903 2.93558,-2.45455 16.26172,-2.45455 h 13.80717 l 15.73828,15.76137 15.73828,15.76137 v 21.78409 21.78408 l -2.45455,2.45454 -2.45454,2.45455 h -27.09091 -27.09091 z m 45.54545,-37.54545 v -24 h -16 -16 v 24 24 h 16 16 z m -64.25,27.25168 -7.75,-7.79593 v -57.9703 -57.9703 l 8.00822,8.00822 8.00823,8.00823 -0.25823,57.758 -0.25822,57.758 z m -66.87756,-57.00168 c -1.24387,-1.58606 -1.2085,-1.62143 0.37756,-0.37756 1.66575,1.30637 2.19548,2.12756 1.37244,2.12756 -0.20765,0 -0.99515,-0.7875 -1.75,-1.75 z m 144,-8 c -1.24387,-1.58606 -1.2085,-1.62143 0.37756,-0.37756 1.66575,1.30637 2.19548,2.12756 1.37244,2.12756 -0.20765,0 -0.99515,-0.7875 -1.75,-1.75 z m -154.41789,-12.70455 -2.45455,-2.45454 v -35.09091 -35.09091 l 2.45455,-2.45454 c 2.42231,-2.42232 2.68842,-2.45455 20.26563,-2.45455 h 17.81108 l 11.73437,11.76502 11.73437,11.76502 v 25.78043 25.78044 l -2.45455,2.45454 -2.45454,2.45455 h -27.09091 -27.09091 z m 45.54545,-37.54545 v -24 h -16 -16 v 24 24 h 16 16 z m 50.45455,37.54545 c -2.27142,-2.27142 -2.45455,-3.18418 -2.45455,-12.23436 v -9.77983 l 12,11.96874 c 6.6,6.58281 12,12.08827 12,12.23437 0,0.1461 -4.29545,0.26563 -9.54545,0.26563 -8.80135,0 -9.7368,-0.19134 -12,-2.45455 z m -109.24488,-0.0522 c 0.39032,-0.60555 1.1493,-2.20176 1.68661,-3.54713 0.61764,-1.54648 1.00026,-1.84325 1.04033,-0.80691 0.0349,0.90156 -0.72411,2.49777 -1.68661,3.54713 -0.9625,1.04935 -1.43065,1.41246 -1.04033,0.80691 z m -5.48313,-18.26537 -7.72654,-7.77213 v -17.72787 -17.72788 h -16 c -14.48299,0 -16,0.16355 -16,1.72497 0,1.12644 -2.56839,-0.82627 -7.40208,-5.62771 -6.08997,-6.04932 -7.48751,-7.01983 -7.884,-5.47497 -0.44079,1.71748 -0.49182,1.7245 -0.59792,0.0823 -0.0638,-0.9875 0.98855,-2.9 2.33855,-4.25 l 2.45454,-2.45459 h 27.09091 27.09091 l 2.45454,2.45455 2.45455,2.45454 v 31.04546 c 0,17.075 -0.12306,31.04545 -0.27346,31.04545 -0.1504,0 -3.7504,-3.49746 -8,-7.77212 z m -66.8541,-56.97788 c -1.24387,-1.58606 -1.2085,-1.62143 0.37756,-0.37756 1.66575,1.30637 2.19548,2.12756 1.37244,2.12756 -0.20765,0 -0.99515,-0.7875 -1.75,-1.75 z m 144,0 c -1.24387,-1.58606 -1.2085,-1.62143 0.37756,-0.37756 1.66575,1.30637 2.19548,2.12756 1.37244,2.12756 -0.20765,0 -0.99515,-0.7875 -1.75,-1.75 z M 208.0596,263.82696 c 1.54486,-0.39649 0.57435,-1.79403 -5.47497,-7.884 -4.80144,-4.83369 -6.75415,-7.40208 -5.62771,-7.40208 1.58538,0 1.72497,-1.94218 1.72497,-24 v -24 h -16 -16 v 9.72654 9.72654 l -8,-7.95308 -8,-7.95308 v -7.31891 c 0,-6.43737 0.29565,-7.61456 2.45455,-9.77346 l 2.45454,-2.45455 h 27.09091 27.09091 l 2.45454,2.45455 2.45455,2.45454 v 35.09091 35.09091 l -2.45455,2.45454 c -1.35,1.35 -3.2625,2.40235 -4.25,2.33855 -1.64224,-0.1061 -1.63522,-0.15713 0.0823,-0.59792 z m 17.07684,-1.74063 -2.45455,-2.45454 v -35.09091 -35.09091 l 2.45455,-2.45454 c 2.27275,-2.27276 3.18177,-2.45455 12.27346,-2.45455 h 9.81891 l 7.95308,8 7.95308,8 h -12.22654 -12.22654 v 24 24 h 16 16 V 228.31434 208.0878 l 8,7.95308 8,7.95308 v 17.81891 c 0,17.58552 -0.0322,17.85107 -2.45455,20.27346 l -2.45454,2.45455 h -27.09091 -27.09091 z m 72,0 c -2.36863,-2.36862 -2.45455,-2.93703 -2.45455,-16.23827 v -13.78374 l 16,15.97656 c 8.8,8.78711 16,16.09433 16,16.23828 0,0.14395 -6.09545,0.26172 -13.54545,0.26172 -13.04826,0 -13.63555,-0.0901 -16,-2.45455 z m 57.54545,1.07699 c 0,-0.20765 0.7875,-0.99515 1.75,-1.75 1.58606,-1.24387 1.62143,-1.2085 0.37756,0.37756 -1.30637,1.66575 -2.12756,2.19548 -2.12756,1.37244 z m -220.25,-75.37076 -7.75,-7.79593 V 130.26876 80.54088 h -5.54545 c -4.55444,0 -5.98411,-0.438649 -8,-2.454545 -2.40374,-2.40374 -2.45215,-2.771141 -2.33855,-17.75 0.0638,-8.4125 0.32653,-14.395455 0.58383,-13.295455 0.25731,1.1 7.40881,8.983823 15.89222,17.519606 l 15.42439,15.519606 -0.25822,57.754198 -0.25822,57.75419 z m 149.12244,-1.00168 c -1.24387,-1.58606 -1.2085,-1.62143 0.37756,-0.37756 0.9625,0.75485 1.75,1.54235 1.75,1.75 0,0.82304 -0.82119,0.29331 -2.12756,-1.37244 z m -130.41789,-12.70455 -2.45455,-2.45454 v -35.09091 -35.09091 l 2.45455,-2.454545 c 1.35,-1.35 3.27305,-2.454545 4.27346,-2.454545 1.0004,0 5.3978,3.6 9.77199,8 l 7.95308,8 h -4.22654 -4.22654 v 24 24 h 16 16 V 148.31434 136.0878 l 8,7.95308 8,7.95308 v 9.81891 c 0,9.09169 -0.18179,10.00071 -2.45455,12.27346 l -2.45454,2.45455 h -27.09091 -27.09091 z m 72,0 c -2.03906,-2.03905 -2.45455,-3.43158 -2.45455,-8.22654 v -5.77199 l 8,7.95308 c 4.4,4.37419 8,8.07614 8,8.22654 0,0.1504 -2.49545,0.27346 -5.54545,0.27346 -4.55444,0 -5.98411,-0.43865 -8,-2.45455 z M 111.68189,44.163325 c 0,-0.207656 0.7875,-0.995156 1.75,-1.75 1.58606,-1.243871 1.62143,-1.208501 0.37756,0.377555 -1.30637,1.665748 -2.12756,2.195479 -2.12756,1.372445 z"
         id="path1338" />
      <path
         style="fill:#00c6e0"
         d="m 434.18189,496.54088 -7.95308,-8 h 4.5 c 4.29558,0 4.86129,0.36342 12.45308,8 l 7.95308,8 h -4.5 c -4.29558,0 -4.86129,-0.36342 -12.45308,-8 z m -24,-24 -7.95308,-8 h 4.5 c 4.29558,0 4.86129,0.36342 12.45308,8 l 7.95308,8 h -4.5 c -4.29558,0 -4.86129,-0.36342 -12.45308,-8 z m -35.75,-35.7377 c -7.34668,-7.40029 -7.75,-8.03919 -7.75,-12.27685 v -4.4703 l 8.06611,8.06611 c 7.80548,7.80548 8.0559,8.20218 7.75,12.27685 l -0.31611,4.21073 z m 96,-29.01039 -7.75,-7.79616 v -38.4703 -38.4703 l 8.0121,8.0121 8.0121,8.0121 -0.2621,38.25436 -0.2621,38.25435 z m -31.75,-31.75191 -15.4758,-15.5 h 12.81482 12.81483 l 2.92307,2.92308 c 2.92088,2.92088 2.92308,2.93252 2.92308,15.5 0,6.9173 -0.11794,12.57692 -0.2621,12.57692 -0.14415,0 -7.22621,-6.975 -15.7379,-15.5 z M 402.91688,340.27644 390.68189,328.012 v -24.18851 c 0,-15.59742 0.39434,-25.05398 1.11027,-26.62529 1.5817,-3.47145 4.94536,-4.65732 13.21024,-4.65732 h 7.22641 l 7.95308,8 7.95308,8 h -10.72654 -10.72654 v 24 24 h 16 16 V 317.81434 299.0878 l 8,7.95308 8,7.95308 v 15.22641 c 0,16.29669 -0.6811,19.39855 -4.65732,21.21024 -1.46586,0.66789 -8.89877,1.11027 -18.65474,1.11027 h -16.21795 z m -125.00119,-1.9e-4 c -6.80516,-6.85089 -7.2338,-7.54626 -7.2338,-11.73543 v -4.45302 l 8,7.95308 c 7.83676,7.7908 8.79593,9.63306 7.16351,13.75888 -0.57707,1.45851 -1.93129,0.51522 -7.92971,-5.52351 z m 96.5162,-28.48329 -7.75,-7.79633 v -38.46494 -38.46494 l 14.51967,14.48706 14.51967,14.48707 -6.50568,0.29537 -6.50569,0.29537 -0.26398,31.47883 -0.26399,31.47884 z M 230.3023,292.67283 c -7.69389,-7.74985 -7.86295,-8.02558 -7.17362,-11.69999 l 0.70596,-3.76309 7.48971,7.48972 c 7.20648,7.20648 7.47777,7.64894 7.17363,11.69999 l -0.31609,4.21026 z m 116.3959,-8.60994 -11.48369,-11.52201 7.98369,0.0147 c 13.11363,0.0242 15.77095,2.71736 15.27621,15.48213 l -0.29252,7.5472 z m 104.85613,-9.27201 c -1.24387,-1.58606 -1.2085,-1.62143 0.37756,-0.37756 1.66575,1.30637 2.19548,2.12756 1.37244,2.12756 -0.20765,0 -0.99515,-0.7875 -1.75,-1.75 z m -257.37244,-18.25 -7.95308,-8 h 4.50157 c 4.26549,0 4.885,0.38601 11.81316,7.36072 6.84716,6.89317 7.16317,7.40045 4.97497,7.98634 -4.41033,1.18086 -5.40159,0.63479 -13.33662,-7.34706 z m 125,0 -7.95308,-8 h 15.72654 15.72654 V 225.81434 203.0878 l 8,7.95308 8,7.95308 v 19.85038 19.85039 l -2.92308,2.92307 -2.92307,2.92308 h -12.85039 -12.85038 z m -16.75,-16.74752 -7.75,-7.79673 v -20.18082 c 0,-12.66028 0.41375,-21.08891 1.11027,-22.61761 1.71157,-3.75647 5.04048,-4.65732 17.21024,-4.65732 h 11.22641 l 7.95308,8 7.95308,8 h -14.70844 -14.70844 l -0.2681,23.52461 -0.2681,23.52461 z m -144,-18.99018 c -7.34668,-7.40029 -7.75,-8.03919 -7.75,-12.27685 v -4.4703 l 8.06611,8.06611 c 7.80548,7.80548 8.0559,8.20218 7.75,12.27685 l -0.31611,4.21073 z m 119.97654,-5.03442 c -6.86372,-6.90421 -7.72654,-8.18842 -7.72654,-11.5 0,-3.64523 -0.0837,-3.72788 -3.77346,-3.72788 -3.3874,0 -4.58713,-0.81847 -11.72654,-8 l -7.95308,-8 h 16.80346 16.80347 l 2.92307,2.92308 2.92308,2.92307 v 16.57693 c 0,9.1173 -0.12306,16.57692 -0.27346,16.57692 -0.1504,0 -3.7504,-3.49746 -8,-7.77212 z M 134.43189,196.80318 c -7.34668,-7.40029 -7.75,-8.03919 -7.75,-12.27685 v -4.4703 l 8.06611,8.06611 c 7.80548,7.80548 8.0559,8.20218 7.75,12.27685 l -0.31611,4.21073 z m 221.12244,-10.0123 c -1.24387,-1.58606 -1.2085,-1.62143 0.37756,-0.37756 1.66575,1.30637 2.19548,2.12756 1.37244,2.12756 -0.20765,0 -0.99515,-0.7875 -1.75,-1.75 z m -124.64452,-18.52089 -8.22792,-8.27089 v -28.27877 c 0,-30.47083 0.42006,-33.255594 5.20995,-34.538691 6.34028,-1.698411 8.05613,-0.923254 16.29005,7.359241 l 7.95308,8 h -6.72654 -6.72654 v 24 24 h 16 16 V 145.81434 131.0878 l 8,7.95308 8,7.95308 v 11.22641 c 0,12.16976 -0.90085,15.49867 -4.65732,17.21024 -1.52926,0.69677 -9.96914,1.11027 -22.66181,1.11027 h -20.22503 z m 68.09326,7.08216 c -3.18962,-1.54206 -4.45926,-5.5976 -4.12081,-13.16285 l 0.29963,-6.69772 10.48213,10.52465 10.48214,10.52465 -7.48214,-0.0677 c -4.11517,-0.0372 -8.4626,-0.5417 -9.66095,-1.12105 z m 55.67882,-0.18883 c 0,-0.20765 0.7875,-0.99515 1.75,-1.75 1.58606,-1.24387 1.62143,-1.2085 0.37756,0.37756 -1.30637,1.66575 -2.12756,2.19548 -2.12756,1.37244 z m -148.25,-31.36996 -7.75,-7.79673 v -11.72787 -11.72788 h -11.77346 -11.77346 l -7.95308,-8 -7.95308,-8 h 24.17949 c 15.84075,0 25.03457,0.389604 26.65895,1.12972 4.26414,1.942872 4.67051,4.73775 4.38332,30.1471 l -0.26868,23.7724 z m 77.12244,-45.00248 c -1.24387,-1.586056 -1.2085,-1.621426 0.37756,-0.377555 0.9625,0.754844 1.75,1.542344 1.75,1.749995 0,0.82304 -0.82119,0.29331 -2.12756,-1.37244 z m 12.12756,1.37244 c 0,-0.207651 0.7875,-0.995151 1.75,-1.749995 1.58606,-1.243871 1.62143,-1.208501 0.37756,0.377555 -1.30637,1.66575 -2.12756,2.19548 -2.12756,1.37244 z m -160.5,-27.62244 -7.95308,-8 h 38.5 38.5 l 7.95308,8 7.95308,8 h -38.5 -38.5 z m -16.25,-16.236419 c -7.72169,-7.786243 -8.64712,-10.188392 -5.14641,-13.358593 1.96212,-1.776876 4.26547,-1.924052 34.25,-2.188467 l 32.14641,-0.28348 7.97654,8.03348 7.97654,8.033479 H 161.4688 126.80262 l -0.31036,3.537097 -0.31037,3.537096 z m 80.75,-44.141136 c 0,-0.207656 0.7875,-0.995156 1.75,-1.750001 1.58606,-1.2438702 1.62143,-1.2084999 0.37756,0.377556 -1.30637,1.665748 -2.12756,2.195479 -2.12756,1.372445 z"
         id="path1336" />
      <path
         style="fill:#00b1e3"
         d="m 470.43189,330.79273 -7.75,-7.7961 v -33.22787 -33.22788 h -33.2625 -33.26251 l -14.73749,-14.76211 -14.7375,-14.7621 v -73.2379 -73.23789 h -73.27346 -73.27346 l -7.95308,-8 -7.95308,-8 h 89.22654 89.22654 v -4 -4 h -93.27346 -93.27346 l -7.95308,-8 -7.95308,-8 h 9.14906 9.14906 l 0.32748,-13.589003 c 0.32477,-13.476359 0.35074,-13.608987 3.13324,-16 l 2.80577,-2.4109973 h 49.39718 c 34.07236,0 50.15316,0.3444473 51.83397,1.1102718 3.83003,1.7450815 4.65732,5.0200365 4.65732,18.4367815 V 40.54088 h 41.38922 c 39.24319,0 41.51162,0.099 43.75,1.909343 2.24837,1.818425 2.37637,2.585346 2.68821,16.105956 0.21043,9.123578 -0.0817,15.18442 -0.81759,16.960938 -1.42057,3.42957 -4.7706,5.023763 -10.55689,5.023763 h -4.45295 v 68 68 h 52.45295 c 36.31186,0 53.2028,0.34166 54.88973,1.11027 3.85697,1.75736 4.65732,5.00352 4.65732,18.88973 0,7.32863 -0.4798,13.95895 -1.11027,15.34268 -1.42599,3.1297 -4.84566,4.65732 -10.42569,4.65732 h -4.44185 l -0.2611,41.02397 -0.26109,41.02398 z m 8.25,-94.25185 v -4 h -48 -48 v 4 4 h 48 48 z m -184,-204 v -8 h -40 -40 v 8 8 h 40 40 z m 151.75,274.25321 c -7.68403,-7.73109 -7.75,-7.84196 -7.75,-13.02533 v -5.22788 h -5.27346 c -5.2624,0 -5.29014,-0.0168 -13.22654,-8 l -7.95308,-8 17.47654,0.0147 c 25.62268,0.0216 25.15741,-0.44734 24.75043,24.94658 l -0.27389,17.08934 -7.75,-7.79745 z m -96,-95.9991 c -4.2625,-4.2891 -7.75,-8.3509 -7.75,-9.02623 0,-0.67534 -0.57306,-1.22788 -1.27346,-1.22788 -0.7004,0 -4.85235,-3.6 -9.22654,-8 l -7.95308,-8 13.47654,0.0147 c 20.45789,0.0224 21.18744,0.75908 20.75593,20.95897 l -0.27939,13.07876 -7.75,-7.79836 z m -45.04764,-45.02377 -10.79764,-10.85858 0.29764,-26.7739 0.29764,-26.77391 2.80576,-2.411973 2.80577,-2.411977 h 25.39718 c 16.74576,0 26.2418,0.384833 27.87665,1.12972 4.46426,2.034055 4.71146,4.28754 4.40367,40.14504 -0.28768,33.51435 -0.29969,33.68275 -2.56441,35.94866 -2.18166,2.18282 -3.04653,2.28871 -21,2.57103 l -18.72462,0.29446 z m 37.29764,-29.23034 v -24 h -16 -16 v 24 24 h 16 16 z m -64.25,2.2527 -7.75,-7.79695 v -9.22787 -9.22788 h -9.27346 -9.27346 l -7.95308,-8 -7.95308,-8 21.47654,0.01474 c 15.30223,0.0105 22.19527,0.378281 23.97654,1.279264 4.62185,2.337776 5.06163,4.887796 4.7701,27.658896 l -0.2701,21.09674 z"
         id="path1334" />
      <path
         style="fill:#00afc8"
         d="m 331.18189,496.54088 -7.95308,-8 h 51.5 51.5 l 7.95308,8 7.95308,8 h -51.5 -51.5 z m -26.26787,-26.26707 -10.23213,-10.26708 v -37.73292 -37.73293 h -16 -16 v 21.72654 21.72654 l -8,-7.95308 -8,-7.95308 v -13.77346 -13.77346 h -13.77503 -13.77503 l -7.22497,-7.27352 c -3.97373,-4.00043 -7.22497,-7.61625 -7.22497,-8.03515 0,-0.4189 22.71284,-0.63332 50.47298,-0.47648 l 50.47298,0.28515 2.27702,2.27689 2.27702,2.27689 0.28853,45.47311 0.28853,45.47311 h 27.96147 27.96147 V 446.81434 429.0878 l 8,7.95308 8,7.95308 v 9.77346 9.77346 h 9.77346 9.77346 l 7.95308,8 7.95308,8 h -51.49441 -51.4944 z M 115.55433,362.79088 c -1.24387,-1.58606 -1.2085,-1.62143 0.37756,-0.37756 0.9625,0.75485 1.75,1.54235 1.75,1.75 0,0.82304 -0.82119,0.29331 -2.12756,-1.37244 z m 63.62756,-18.25 -7.95308,-8 h 13.72654 13.72654 v -24 -24 h -16 -16 v 21.72654 21.72654 l -8,-7.95308 -8,-7.95308 v -18.85038 -18.85039 l 2.98373,-2.98373 2.98373,-2.98373 26.49022,0.31066 c 26.02953,0.30525 26.5298,0.35024 28.76627,2.58713 2.26767,2.26811 2.27715,2.40344 2.575,36.77798 l 0.29894,34.5015 -2.97202,2.97202 c -2.93082,2.93081 -3.12246,2.97202 -13.82241,2.97202 h -10.85038 z m 46.42308,5.07692 -2.92308,-2.92307 V 315.89126 285.0878 l 8,7.95308 8,7.95308 v 17.77346 17.77346 h 15.92668 c 13.52162,0 15.9755,-0.23213 16.25,-1.53724 0.2188,-1.04027 2.58191,0.7421 7.30977,5.51338 5.82855,5.88207 6.80728,7.33466 5.90536,8.76449 -0.5946,0.94264 -2.1635,2.01676 -3.48645,2.38695 -1.32295,0.37018 -13.57748,0.71792 -27.23228,0.77274 l -24.82693,0.0997 z m -91.17308,-49.82519 -7.75,-7.79598 V 274.26876 256.54088 H 108.90843 91.134969 l -7.95308,-8 -7.95308,-8 h 25.726541 25.72654 v -4 -4 H 96.908429 67.134969 l -7.95308,-8 -7.95308,-8 h 37.72654 37.726541 v -13.74242 -13.74243 l 8.00921,8.00921 8.0092,8.00921 -0.2592,51.25706 -0.25921,51.25707 z m -21.71584,-21.70739 c -4.6085,-4.67468 -5.12565,-5.54434 -3.29705,-5.54434 5.27213,0 10.04108,4.95957 9.10145,9.46524 -0.24723,1.1855 -1.81301,0.1278 -5.8044,-3.9209 z m 42.98555,-14.82879 c -4.57274,-2.31369 -4.98918,-4.65946 -5.00497,-28.19209 l -0.0147,-21.97654 8,7.95308 8,7.95308 v 9.77346 9.77346 h 9.77346 9.77346 l 7.95308,8 7.95308,8 -21.97654,-0.0147 c -15.61738,-0.0105 -22.69424,-0.37788 -24.45683,-1.26971 z M 16.554334,253.79088 c -1.243871,-1.58606 -1.208501,-1.62143 0.377555,-0.37756 0.9625,0.75485 1.75,1.54235 1.75,1.75 0,0.82304 -0.821186,0.29331 -2.127555,-1.37244 z"
         id="path1332" />
      <path
         style="fill:#0090b7"
         d="m 230.18189,496.54088 -7.95308,-8 h 50.5 50.5 l 7.95308,8 7.95308,8 h -50.5 -50.5 z m -23.81248,-23.81137 -7.76556,-7.81138 0.28902,-45.77771 0.28902,-45.77771 2.42452,-1.96253 2.42453,-1.96253 7.36426,7.30162 c 6.13207,6.0799 7.02313,7.35508 5.32547,7.62116 -2.01233,0.31541 -2.03878,0.83751 -2.03878,40.25 v 39.93045 h 16 16 V 438.31434 412.0878 l 8,7.95308 8,7.95308 v 18.27346 18.27346 h 15.93045 c 15.24411,0 15.94422,-0.0876 16.25,-2.03259 0.26012,-1.65457 2.17584,-0.16675 10.30079,8 l 9.98124,10.03259 h -50.5047 -50.5047 z m -71.93752,-71.93689 -7.75,-7.79599 v -50.4703 -50.4703 l 8.00938,8.00938 8.00938,8.00938 -0.25938,50.2569 -0.25938,50.25691 z m -28.25,-28.25174 -11.968737,-12 h 9.311287 c 8.9581,0 9.42217,0.11088 12.23437,2.92308 2.80139,2.80139 2.92308,3.30094 2.92308,12 0,4.9923 -0.11953,9.07692 -0.26563,9.07692 -0.1461,0 -5.65156,-5.4 -12.23437,-12 z M 70.363589,336.72285 54.568731,320.90481 54.87531,299.2485 c 0.406951,-28.74644 -2.428416,-26.11758 28.582478,-26.50078 l 23.724102,-0.29317 5.79109,5.86369 5.7911,5.86369 -0.2911,31.7672 -0.29109,31.7672 -2.80576,2.41227 c -2.65922,2.28629 -3.49551,2.41228 -16.011731,2.41228 H 86.158446 Z m 32.318301,-24.18197 v -24 h -16.000001 -16 v 24 24 h 16 16.000001 z m 53.01971,38.71555 c -4.2786,-2.16486 -4.98909,-5.10227 -5.00497,-20.69209 l -0.0147,-14.47654 8,7.95308 c 5.32194,5.29073 8,8.71414 8,10.22654 0,1.69795 0.57551,2.27346 2.27346,2.27346 1.5124,0 4.93581,2.67806 10.22654,8 l 7.95308,8 -14.47654,-0.0147 c -9.60017,-0.01 -15.31202,-0.43747 -16.95683,-1.26971 z M 38.431889,304.7931 l -7.75,-7.79647 v -20.10404 -20.10405 l -5.669438,-0.47015 c -4.645604,-0.38525 -6.103221,-0.97446 -8.071497,-3.26272 -2.332164,-2.7113 -2.392704,-3.20971 -2.080562,-17.12873 0.438177,-19.53916 -0.370782,-18.78555 20.596551,-19.18756 l 15.724946,-0.3015 7.97654,8.0515 7.97654,8.0515 h -18.22654 -18.22654 v 4 4 h 22.27346 22.27346 l 7.95308,8 7.95308,8 H 68.924002 46.713036 l -0.265574,28.02434 -0.265573,28.02435 z"
         id="path1330" />
      <path
         style="fill:#0073a7"
         d="m 125.18189,496.54088 -7.95308,-8 h 52.5 52.5 l 7.95308,8 7.95308,8 h -52.5 -52.5 z m -24,-24 -7.953081,-8 h 16.726541 16.72654 V 428.81434 393.0878 l 8,7.95308 8,7.95308 v 27.77346 27.77346 h 27.77346 27.77346 l 7.95308,8 7.95308,8 h -52.5 -52.5 z m -39.29287,-39.27402 -7.292869,-7.35933 0.292869,-30.15695 c 0.369947,-38.09377 -1.835785,-34.5949 22.068077,-35.00576 l 17.224792,-0.29605 12.300021,12.36063 12.30001,12.36063 -0.30001,25.15944 c -0.29392,24.64822 -0.34626,25.20568 -2.57577,27.43542 -2.21161,2.21183 -2.90222,2.28424 -24.500004,2.56864 l -22.224247,0.29265 z m 40.79287,-32.72598 v -24 h -16.000001 -16 v 24 24 h 16 16.000001 z m -64.250001,9.25172 -7.75,-7.79597 v -52.4703 -52.4703 l 8.009041,8.00904 8.00904,8.00904 -0.25904,52.25723 -0.259041,52.25722 z m 21.715282,-58.20324 c -4.136769,-1.6768 -4.928656,-3.90641 -5.306322,-14.94031 -0.590397,-17.24906 -1.769762,-17.27631 15.82894,0.36576 l 15.4879,15.52607 -11.9879,-0.0634 c -6.593345,-0.0349 -12.903523,-0.43452 -14.022618,-0.88813 z"
         id="path1328" />
      <path
         style="fill:#005294"
         d="m 9.5311407,501.54398 -2.9969013,-2.9969 0.3238247,-14.47816 C 7.275724,465.3954 7.4214658,465.19863 21.208055,464.69435 l 9.473834,-0.34653 V 433.21781 402.0878 l 8,7.95308 8,7.95308 v 23.27346 23.27346 h 23.27346 23.27346 l 7.953081,8 7.95308,8 H 65.908429 22.681889 v 4 4 h 47.27346 47.273461 l 7.95308,8 7.95308,8 H 72.831506 12.528043 Z M 61.181889,439.82164 c -3.462437,-0.84351 -5.389715,-3.36252 -6.076468,-7.94212 -0.365461,-2.43707 -0.473027,-4.62248 -0.239035,-4.85647 0.233991,-0.23399 3.538634,2.7118 7.343651,6.5462 6.724249,6.77617 6.834855,6.96838 3.945032,6.85563 -1.635249,-0.0638 -3.87318,-0.33526 -4.97318,-0.60324 z"
         id="path1326" />
    </g>
  </g>
</svg>
